<mxfile host="Electron" modified="2024-08-28T00:14:21.406Z" agent="Mozilla/5.0 (Windows NT 10.0; WOW64) AppleWebKit/537.36 (KHTML, like Gecko) draw.io/22.0.2 Chrome/114.0.5735.289 Electron/25.8.4 Safari/537.36" etag="ciXMNPv_eKw2Z2pJMoB3" version="22.0.2" type="device">
  <diagram id="R2lEEEUBdFMjLlhIrx00" name="Page-1">
    <mxGraphModel dx="1948" dy="1928" grid="1" gridSize="10" guides="1" tooltips="1" connect="1" arrows="1" fold="1" page="1" pageScale="1" pageWidth="850" pageHeight="1100" math="0" shadow="0" extFonts="Permanent Marker^https://fonts.googleapis.com/css?family=Permanent+Marker">
      <root>
        <mxCell id="0" />
        <mxCell id="1" parent="0" />
        <mxCell id="C-vyLk0tnHw3VtMMgP7b-1" value="" style="edgeStyle=entityRelationEdgeStyle;endArrow=ERzeroToMany;startArrow=ERone;endFill=1;startFill=0;" parent="1" source="C-vyLk0tnHw3VtMMgP7b-24" target="C-vyLk0tnHw3VtMMgP7b-6" edge="1">
          <mxGeometry width="100" height="100" relative="1" as="geometry">
            <mxPoint x="340" y="720" as="sourcePoint" />
            <mxPoint x="440" y="620" as="targetPoint" />
          </mxGeometry>
        </mxCell>
        <mxCell id="C-vyLk0tnHw3VtMMgP7b-2" value="PunchEntries" style="shape=table;startSize=30;container=1;collapsible=1;childLayout=tableLayout;fixedRows=1;rowLines=0;fontStyle=1;align=center;resizeLast=1;fillColor=#FFFFCC;" parent="1" vertex="1">
          <mxGeometry x="450" y="120" width="250" height="100" as="geometry" />
        </mxCell>
        <mxCell id="C-vyLk0tnHw3VtMMgP7b-3" value="" style="shape=partialRectangle;collapsible=0;dropTarget=0;pointerEvents=0;fillColor=none;points=[[0,0.5],[1,0.5]];portConstraint=eastwest;top=0;left=0;right=0;bottom=1;" parent="C-vyLk0tnHw3VtMMgP7b-2" vertex="1">
          <mxGeometry y="30" width="250" height="30" as="geometry" />
        </mxCell>
        <mxCell id="C-vyLk0tnHw3VtMMgP7b-4" value="PK" style="shape=partialRectangle;overflow=hidden;connectable=0;fillColor=none;top=0;left=0;bottom=0;right=0;fontStyle=1;" parent="C-vyLk0tnHw3VtMMgP7b-3" vertex="1">
          <mxGeometry width="30" height="30" as="geometry">
            <mxRectangle width="30" height="30" as="alternateBounds" />
          </mxGeometry>
        </mxCell>
        <mxCell id="C-vyLk0tnHw3VtMMgP7b-5" value="Id int NOT NULL " style="shape=partialRectangle;overflow=hidden;connectable=0;fillColor=none;top=0;left=0;bottom=0;right=0;align=left;spacingLeft=6;fontStyle=5;" parent="C-vyLk0tnHw3VtMMgP7b-3" vertex="1">
          <mxGeometry x="30" width="220" height="30" as="geometry">
            <mxRectangle width="220" height="30" as="alternateBounds" />
          </mxGeometry>
        </mxCell>
        <mxCell id="C-vyLk0tnHw3VtMMgP7b-6" value="" style="shape=partialRectangle;collapsible=0;dropTarget=0;pointerEvents=0;fillColor=none;points=[[0,0.5],[1,0.5]];portConstraint=eastwest;top=0;left=0;right=0;bottom=0;" parent="C-vyLk0tnHw3VtMMgP7b-2" vertex="1">
          <mxGeometry y="60" width="250" height="30" as="geometry" />
        </mxCell>
        <mxCell id="C-vyLk0tnHw3VtMMgP7b-7" value="FK" style="shape=partialRectangle;overflow=hidden;connectable=0;fillColor=none;top=0;left=0;bottom=0;right=0;" parent="C-vyLk0tnHw3VtMMgP7b-6" vertex="1">
          <mxGeometry width="30" height="30" as="geometry">
            <mxRectangle width="30" height="30" as="alternateBounds" />
          </mxGeometry>
        </mxCell>
        <mxCell id="C-vyLk0tnHw3VtMMgP7b-8" value="UserId int NOT NULL" style="shape=partialRectangle;overflow=hidden;connectable=0;fillColor=none;top=0;left=0;bottom=0;right=0;align=left;spacingLeft=6;" parent="C-vyLk0tnHw3VtMMgP7b-6" vertex="1">
          <mxGeometry x="30" width="220" height="30" as="geometry">
            <mxRectangle width="220" height="30" as="alternateBounds" />
          </mxGeometry>
        </mxCell>
        <mxCell id="C-vyLk0tnHw3VtMMgP7b-23" value="Users" style="shape=table;startSize=30;container=1;collapsible=1;childLayout=tableLayout;fixedRows=1;rowLines=0;fontStyle=1;align=center;resizeLast=1;fillColor=#FFFFCC;" parent="1" vertex="1">
          <mxGeometry x="120" y="-60" width="250" height="220" as="geometry" />
        </mxCell>
        <mxCell id="C-vyLk0tnHw3VtMMgP7b-24" value="" style="shape=partialRectangle;collapsible=0;dropTarget=0;pointerEvents=0;fillColor=none;points=[[0,0.5],[1,0.5]];portConstraint=eastwest;top=0;left=0;right=0;bottom=1;" parent="C-vyLk0tnHw3VtMMgP7b-23" vertex="1">
          <mxGeometry y="30" width="250" height="30" as="geometry" />
        </mxCell>
        <mxCell id="C-vyLk0tnHw3VtMMgP7b-25" value="PK" style="shape=partialRectangle;overflow=hidden;connectable=0;fillColor=none;top=0;left=0;bottom=0;right=0;fontStyle=1;" parent="C-vyLk0tnHw3VtMMgP7b-24" vertex="1">
          <mxGeometry width="30" height="30" as="geometry">
            <mxRectangle width="30" height="30" as="alternateBounds" />
          </mxGeometry>
        </mxCell>
        <mxCell id="C-vyLk0tnHw3VtMMgP7b-26" value="Id int NOT NULL " style="shape=partialRectangle;overflow=hidden;connectable=0;fillColor=none;top=0;left=0;bottom=0;right=0;align=left;spacingLeft=6;fontStyle=5;" parent="C-vyLk0tnHw3VtMMgP7b-24" vertex="1">
          <mxGeometry x="30" width="220" height="30" as="geometry">
            <mxRectangle width="220" height="30" as="alternateBounds" />
          </mxGeometry>
        </mxCell>
        <mxCell id="C-vyLk0tnHw3VtMMgP7b-27" value="" style="shape=partialRectangle;collapsible=0;dropTarget=0;pointerEvents=0;fillColor=none;points=[[0,0.5],[1,0.5]];portConstraint=eastwest;top=0;left=0;right=0;bottom=0;" parent="C-vyLk0tnHw3VtMMgP7b-23" vertex="1">
          <mxGeometry y="60" width="250" height="30" as="geometry" />
        </mxCell>
        <mxCell id="C-vyLk0tnHw3VtMMgP7b-28" value="" style="shape=partialRectangle;overflow=hidden;connectable=0;fillColor=none;top=0;left=0;bottom=0;right=0;" parent="C-vyLk0tnHw3VtMMgP7b-27" vertex="1">
          <mxGeometry width="30" height="30" as="geometry">
            <mxRectangle width="30" height="30" as="alternateBounds" />
          </mxGeometry>
        </mxCell>
        <mxCell id="C-vyLk0tnHw3VtMMgP7b-29" value="FirstName varchar(25) NOT NULL" style="shape=partialRectangle;overflow=hidden;connectable=0;fillColor=none;top=0;left=0;bottom=0;right=0;align=left;spacingLeft=6;" parent="C-vyLk0tnHw3VtMMgP7b-27" vertex="1">
          <mxGeometry x="30" width="220" height="30" as="geometry">
            <mxRectangle width="220" height="30" as="alternateBounds" />
          </mxGeometry>
        </mxCell>
        <mxCell id="nCTSCP43dpq-vDv1E38t-25" value="" style="shape=partialRectangle;collapsible=0;dropTarget=0;pointerEvents=0;fillColor=none;points=[[0,0.5],[1,0.5]];portConstraint=eastwest;top=0;left=0;right=0;bottom=0;" parent="C-vyLk0tnHw3VtMMgP7b-23" vertex="1">
          <mxGeometry y="90" width="250" height="30" as="geometry" />
        </mxCell>
        <mxCell id="nCTSCP43dpq-vDv1E38t-26" value="" style="shape=partialRectangle;overflow=hidden;connectable=0;fillColor=none;top=0;left=0;bottom=0;right=0;" parent="nCTSCP43dpq-vDv1E38t-25" vertex="1">
          <mxGeometry width="30" height="30" as="geometry">
            <mxRectangle width="30" height="30" as="alternateBounds" />
          </mxGeometry>
        </mxCell>
        <mxCell id="nCTSCP43dpq-vDv1E38t-27" value="LastName varchar(25) NOT NULL" style="shape=partialRectangle;overflow=hidden;connectable=0;fillColor=none;top=0;left=0;bottom=0;right=0;align=left;spacingLeft=6;" parent="nCTSCP43dpq-vDv1E38t-25" vertex="1">
          <mxGeometry x="30" width="220" height="30" as="geometry">
            <mxRectangle width="220" height="30" as="alternateBounds" />
          </mxGeometry>
        </mxCell>
        <mxCell id="nCTSCP43dpq-vDv1E38t-28" value="" style="shape=partialRectangle;collapsible=0;dropTarget=0;pointerEvents=0;fillColor=none;points=[[0,0.5],[1,0.5]];portConstraint=eastwest;top=0;left=0;right=0;bottom=0;perimeterSpacing=0;labelBorderColor=none;strokeWidth=0;" parent="C-vyLk0tnHw3VtMMgP7b-23" vertex="1">
          <mxGeometry y="120" width="250" height="30" as="geometry" />
        </mxCell>
        <mxCell id="nCTSCP43dpq-vDv1E38t-29" value="" style="shape=partialRectangle;overflow=hidden;connectable=0;fillColor=none;top=0;left=0;bottom=0;right=0;" parent="nCTSCP43dpq-vDv1E38t-28" vertex="1">
          <mxGeometry width="30" height="30" as="geometry">
            <mxRectangle width="30" height="30" as="alternateBounds" />
          </mxGeometry>
        </mxCell>
        <mxCell id="nCTSCP43dpq-vDv1E38t-30" value="EmpNum varchar(20) NOT NULL" style="shape=partialRectangle;overflow=hidden;connectable=0;fillColor=none;top=0;left=0;bottom=0;right=0;align=left;spacingLeft=6;strokeColor=default;perimeterSpacing=0;" parent="nCTSCP43dpq-vDv1E38t-28" vertex="1">
          <mxGeometry x="30" width="220" height="30" as="geometry">
            <mxRectangle width="220" height="30" as="alternateBounds" />
          </mxGeometry>
        </mxCell>
        <mxCell id="nCTSCP43dpq-vDv1E38t-31" value="" style="shape=partialRectangle;collapsible=0;dropTarget=0;pointerEvents=0;fillColor=none;points=[[0,0.5],[1,0.5]];portConstraint=eastwest;top=0;left=0;right=0;bottom=0;" parent="C-vyLk0tnHw3VtMMgP7b-23" vertex="1">
          <mxGeometry y="150" width="250" height="30" as="geometry" />
        </mxCell>
        <mxCell id="nCTSCP43dpq-vDv1E38t-32" value="" style="shape=partialRectangle;overflow=hidden;connectable=0;fillColor=none;top=0;left=0;bottom=0;right=0;" parent="nCTSCP43dpq-vDv1E38t-31" vertex="1">
          <mxGeometry width="30" height="30" as="geometry">
            <mxRectangle width="30" height="30" as="alternateBounds" />
          </mxGeometry>
        </mxCell>
        <mxCell id="nCTSCP43dpq-vDv1E38t-33" value="UserName varchar(20) NOT NULL" style="shape=partialRectangle;overflow=hidden;connectable=0;fillColor=none;top=0;left=0;bottom=0;right=0;align=left;spacingLeft=6;" parent="nCTSCP43dpq-vDv1E38t-31" vertex="1">
          <mxGeometry x="30" width="220" height="30" as="geometry">
            <mxRectangle width="220" height="30" as="alternateBounds" />
          </mxGeometry>
        </mxCell>
        <mxCell id="N9lahQKiaWfDoqIkXYoZ-5" value="" style="shape=partialRectangle;collapsible=0;dropTarget=0;pointerEvents=0;fillColor=none;points=[[0,0.5],[1,0.5]];portConstraint=eastwest;top=0;left=0;right=0;bottom=0;" parent="C-vyLk0tnHw3VtMMgP7b-23" vertex="1">
          <mxGeometry y="180" width="250" height="30" as="geometry" />
        </mxCell>
        <mxCell id="N9lahQKiaWfDoqIkXYoZ-6" value="" style="shape=partialRectangle;overflow=hidden;connectable=0;fillColor=none;top=0;left=0;bottom=0;right=0;" parent="N9lahQKiaWfDoqIkXYoZ-5" vertex="1">
          <mxGeometry width="30" height="30" as="geometry">
            <mxRectangle width="30" height="30" as="alternateBounds" />
          </mxGeometry>
        </mxCell>
        <mxCell id="N9lahQKiaWfDoqIkXYoZ-7" value="IsActive bit NOT NULL" style="shape=partialRectangle;overflow=hidden;connectable=0;fillColor=none;top=0;left=0;bottom=0;right=0;align=left;spacingLeft=6;" parent="N9lahQKiaWfDoqIkXYoZ-5" vertex="1">
          <mxGeometry x="30" width="220" height="30" as="geometry">
            <mxRectangle width="220" height="30" as="alternateBounds" />
          </mxGeometry>
        </mxCell>
        <mxCell id="N9lahQKiaWfDoqIkXYoZ-82" style="edgeStyle=orthogonalEdgeStyle;rounded=1;orthogonalLoop=1;jettySize=auto;html=1;exitX=0;exitY=0.25;exitDx=0;exitDy=0;entryX=1;entryY=0.5;entryDx=0;entryDy=0;endArrow=ERzeroToMany;endFill=0;startArrow=ERone;startFill=0;" parent="1" source="nCTSCP43dpq-vDv1E38t-34" target="N9lahQKiaWfDoqIkXYoZ-75" edge="1">
          <mxGeometry relative="1" as="geometry">
            <Array as="points">
              <mxPoint x="100" y="418" />
              <mxPoint x="100" y="585" />
            </Array>
          </mxGeometry>
        </mxCell>
        <mxCell id="nCTSCP43dpq-vDv1E38t-34" value="Locations" style="shape=table;startSize=30;container=1;collapsible=1;childLayout=tableLayout;fixedRows=1;rowLines=0;fontStyle=1;align=center;resizeLast=1;fillColor=#FFFFCC;" parent="1" vertex="1">
          <mxGeometry x="120" y="370" width="250" height="190" as="geometry" />
        </mxCell>
        <mxCell id="nCTSCP43dpq-vDv1E38t-35" value="" style="shape=partialRectangle;collapsible=0;dropTarget=0;pointerEvents=0;fillColor=none;points=[[0,0.5],[1,0.5]];portConstraint=eastwest;top=0;left=0;right=0;bottom=1;" parent="nCTSCP43dpq-vDv1E38t-34" vertex="1">
          <mxGeometry y="30" width="250" height="30" as="geometry" />
        </mxCell>
        <mxCell id="nCTSCP43dpq-vDv1E38t-36" value="PK" style="shape=partialRectangle;overflow=hidden;connectable=0;fillColor=none;top=0;left=0;bottom=0;right=0;fontStyle=1;" parent="nCTSCP43dpq-vDv1E38t-35" vertex="1">
          <mxGeometry width="30" height="30" as="geometry">
            <mxRectangle width="30" height="30" as="alternateBounds" />
          </mxGeometry>
        </mxCell>
        <mxCell id="nCTSCP43dpq-vDv1E38t-37" value="Id int NOT NULL " style="shape=partialRectangle;overflow=hidden;connectable=0;fillColor=none;top=0;left=0;bottom=0;right=0;align=left;spacingLeft=6;fontStyle=5;" parent="nCTSCP43dpq-vDv1E38t-35" vertex="1">
          <mxGeometry x="30" width="220" height="30" as="geometry">
            <mxRectangle width="220" height="30" as="alternateBounds" />
          </mxGeometry>
        </mxCell>
        <mxCell id="nCTSCP43dpq-vDv1E38t-38" value="" style="shape=partialRectangle;collapsible=0;dropTarget=0;pointerEvents=0;fillColor=none;points=[[0,0.5],[1,0.5]];portConstraint=eastwest;top=0;left=0;right=0;bottom=0;" parent="nCTSCP43dpq-vDv1E38t-34" vertex="1">
          <mxGeometry y="60" width="250" height="30" as="geometry" />
        </mxCell>
        <mxCell id="nCTSCP43dpq-vDv1E38t-39" value="" style="shape=partialRectangle;overflow=hidden;connectable=0;fillColor=none;top=0;left=0;bottom=0;right=0;" parent="nCTSCP43dpq-vDv1E38t-38" vertex="1">
          <mxGeometry width="30" height="30" as="geometry">
            <mxRectangle width="30" height="30" as="alternateBounds" />
          </mxGeometry>
        </mxCell>
        <mxCell id="nCTSCP43dpq-vDv1E38t-40" value="Name string NOT NULL" style="shape=partialRectangle;overflow=hidden;connectable=0;fillColor=none;top=0;left=0;bottom=0;right=0;align=left;spacingLeft=6;" parent="nCTSCP43dpq-vDv1E38t-38" vertex="1">
          <mxGeometry x="30" width="220" height="30" as="geometry">
            <mxRectangle width="220" height="30" as="alternateBounds" />
          </mxGeometry>
        </mxCell>
        <mxCell id="nCTSCP43dpq-vDv1E38t-41" value="" style="shape=partialRectangle;collapsible=0;dropTarget=0;pointerEvents=0;fillColor=none;points=[[0,0.5],[1,0.5]];portConstraint=eastwest;top=0;left=0;right=0;bottom=0;" parent="nCTSCP43dpq-vDv1E38t-34" vertex="1">
          <mxGeometry y="90" width="250" height="30" as="geometry" />
        </mxCell>
        <mxCell id="nCTSCP43dpq-vDv1E38t-42" value="" style="shape=partialRectangle;overflow=hidden;connectable=0;fillColor=none;top=0;left=0;bottom=0;right=0;" parent="nCTSCP43dpq-vDv1E38t-41" vertex="1">
          <mxGeometry width="30" height="30" as="geometry">
            <mxRectangle width="30" height="30" as="alternateBounds" />
          </mxGeometry>
        </mxCell>
        <mxCell id="nCTSCP43dpq-vDv1E38t-43" value="Latitude double NOT NULL" style="shape=partialRectangle;overflow=hidden;connectable=0;fillColor=none;top=0;left=0;bottom=0;right=0;align=left;spacingLeft=6;" parent="nCTSCP43dpq-vDv1E38t-41" vertex="1">
          <mxGeometry x="30" width="220" height="30" as="geometry">
            <mxRectangle width="220" height="30" as="alternateBounds" />
          </mxGeometry>
        </mxCell>
        <mxCell id="nCTSCP43dpq-vDv1E38t-44" value="" style="shape=partialRectangle;collapsible=0;dropTarget=0;pointerEvents=0;fillColor=none;points=[[0,0.5],[1,0.5]];portConstraint=eastwest;top=0;left=0;right=0;bottom=0;" parent="nCTSCP43dpq-vDv1E38t-34" vertex="1">
          <mxGeometry y="120" width="250" height="30" as="geometry" />
        </mxCell>
        <mxCell id="nCTSCP43dpq-vDv1E38t-45" value="" style="shape=partialRectangle;overflow=hidden;connectable=0;fillColor=none;top=0;left=0;bottom=0;right=0;" parent="nCTSCP43dpq-vDv1E38t-44" vertex="1">
          <mxGeometry width="30" height="30" as="geometry">
            <mxRectangle width="30" height="30" as="alternateBounds" />
          </mxGeometry>
        </mxCell>
        <mxCell id="nCTSCP43dpq-vDv1E38t-46" value="Longitude double NOT NULL" style="shape=partialRectangle;overflow=hidden;connectable=0;fillColor=none;top=0;left=0;bottom=0;right=0;align=left;spacingLeft=6;" parent="nCTSCP43dpq-vDv1E38t-44" vertex="1">
          <mxGeometry x="30" width="220" height="30" as="geometry">
            <mxRectangle width="220" height="30" as="alternateBounds" />
          </mxGeometry>
        </mxCell>
        <mxCell id="N9lahQKiaWfDoqIkXYoZ-8" value="" style="shape=partialRectangle;collapsible=0;dropTarget=0;pointerEvents=0;fillColor=none;points=[[0,0.5],[1,0.5]];portConstraint=eastwest;top=0;left=0;right=0;bottom=0;" parent="nCTSCP43dpq-vDv1E38t-34" vertex="1">
          <mxGeometry y="150" width="250" height="30" as="geometry" />
        </mxCell>
        <mxCell id="N9lahQKiaWfDoqIkXYoZ-9" value="" style="shape=partialRectangle;overflow=hidden;connectable=0;fillColor=none;top=0;left=0;bottom=0;right=0;" parent="N9lahQKiaWfDoqIkXYoZ-8" vertex="1">
          <mxGeometry width="30" height="30" as="geometry">
            <mxRectangle width="30" height="30" as="alternateBounds" />
          </mxGeometry>
        </mxCell>
        <mxCell id="N9lahQKiaWfDoqIkXYoZ-10" value="IsActive bool NOT NULL" style="shape=partialRectangle;overflow=hidden;connectable=0;fillColor=none;top=0;left=0;bottom=0;right=0;align=left;spacingLeft=6;" parent="N9lahQKiaWfDoqIkXYoZ-8" vertex="1">
          <mxGeometry x="30" width="220" height="30" as="geometry">
            <mxRectangle width="220" height="30" as="alternateBounds" />
          </mxGeometry>
        </mxCell>
        <mxCell id="nCTSCP43dpq-vDv1E38t-47" value="Departments" style="shape=table;startSize=30;container=1;collapsible=1;childLayout=tableLayout;fixedRows=1;rowLines=0;fontStyle=1;align=center;resizeLast=1;fillColor=#FFFFCC;" parent="1" vertex="1">
          <mxGeometry x="120" y="570" width="250" height="130" as="geometry" />
        </mxCell>
        <mxCell id="nCTSCP43dpq-vDv1E38t-48" value="" style="shape=partialRectangle;collapsible=0;dropTarget=0;pointerEvents=0;fillColor=none;points=[[0,0.5],[1,0.5]];portConstraint=eastwest;top=0;left=0;right=0;bottom=1;" parent="nCTSCP43dpq-vDv1E38t-47" vertex="1">
          <mxGeometry y="30" width="250" height="30" as="geometry" />
        </mxCell>
        <mxCell id="nCTSCP43dpq-vDv1E38t-49" value="PK" style="shape=partialRectangle;overflow=hidden;connectable=0;fillColor=none;top=0;left=0;bottom=0;right=0;fontStyle=1;" parent="nCTSCP43dpq-vDv1E38t-48" vertex="1">
          <mxGeometry width="30" height="30" as="geometry">
            <mxRectangle width="30" height="30" as="alternateBounds" />
          </mxGeometry>
        </mxCell>
        <mxCell id="nCTSCP43dpq-vDv1E38t-50" value="Id int NOT NULL " style="shape=partialRectangle;overflow=hidden;connectable=0;fillColor=none;top=0;left=0;bottom=0;right=0;align=left;spacingLeft=6;fontStyle=5;" parent="nCTSCP43dpq-vDv1E38t-48" vertex="1">
          <mxGeometry x="30" width="220" height="30" as="geometry">
            <mxRectangle width="220" height="30" as="alternateBounds" />
          </mxGeometry>
        </mxCell>
        <mxCell id="nCTSCP43dpq-vDv1E38t-51" value="" style="shape=partialRectangle;collapsible=0;dropTarget=0;pointerEvents=0;fillColor=none;points=[[0,0.5],[1,0.5]];portConstraint=eastwest;top=0;left=0;right=0;bottom=0;" parent="nCTSCP43dpq-vDv1E38t-47" vertex="1">
          <mxGeometry y="60" width="250" height="30" as="geometry" />
        </mxCell>
        <mxCell id="nCTSCP43dpq-vDv1E38t-52" value="" style="shape=partialRectangle;overflow=hidden;connectable=0;fillColor=none;top=0;left=0;bottom=0;right=0;" parent="nCTSCP43dpq-vDv1E38t-51" vertex="1">
          <mxGeometry width="30" height="30" as="geometry">
            <mxRectangle width="30" height="30" as="alternateBounds" />
          </mxGeometry>
        </mxCell>
        <mxCell id="nCTSCP43dpq-vDv1E38t-53" value="Name string NOT NULL" style="shape=partialRectangle;overflow=hidden;connectable=0;fillColor=none;top=0;left=0;bottom=0;right=0;align=left;spacingLeft=6;" parent="nCTSCP43dpq-vDv1E38t-51" vertex="1">
          <mxGeometry x="30" width="220" height="30" as="geometry">
            <mxRectangle width="220" height="30" as="alternateBounds" />
          </mxGeometry>
        </mxCell>
        <mxCell id="N9lahQKiaWfDoqIkXYoZ-84" value="" style="shape=partialRectangle;collapsible=0;dropTarget=0;pointerEvents=0;fillColor=none;points=[[0,0.5],[1,0.5]];portConstraint=eastwest;top=0;left=0;right=0;bottom=0;" parent="nCTSCP43dpq-vDv1E38t-47" vertex="1">
          <mxGeometry y="90" width="250" height="30" as="geometry" />
        </mxCell>
        <mxCell id="N9lahQKiaWfDoqIkXYoZ-85" value="" style="shape=partialRectangle;overflow=hidden;connectable=0;fillColor=none;top=0;left=0;bottom=0;right=0;" parent="N9lahQKiaWfDoqIkXYoZ-84" vertex="1">
          <mxGeometry width="30" height="30" as="geometry">
            <mxRectangle width="30" height="30" as="alternateBounds" />
          </mxGeometry>
        </mxCell>
        <mxCell id="N9lahQKiaWfDoqIkXYoZ-86" value="IsActive bool NOT NULL" style="shape=partialRectangle;overflow=hidden;connectable=0;fillColor=none;top=0;left=0;bottom=0;right=0;align=left;spacingLeft=6;" parent="N9lahQKiaWfDoqIkXYoZ-84" vertex="1">
          <mxGeometry x="30" width="220" height="30" as="geometry">
            <mxRectangle width="220" height="30" as="alternateBounds" />
          </mxGeometry>
        </mxCell>
        <mxCell id="nCTSCP43dpq-vDv1E38t-60" value="Equipments" style="shape=table;startSize=30;container=1;collapsible=1;childLayout=tableLayout;fixedRows=1;rowLines=0;fontStyle=1;align=center;resizeLast=1;fillColor=#FFFFCC;" parent="1" vertex="1">
          <mxGeometry x="120" y="720" width="250" height="220" as="geometry" />
        </mxCell>
        <mxCell id="nCTSCP43dpq-vDv1E38t-61" value="" style="shape=partialRectangle;collapsible=0;dropTarget=0;pointerEvents=0;fillColor=none;points=[[0,0.5],[1,0.5]];portConstraint=eastwest;top=0;left=0;right=0;bottom=1;" parent="nCTSCP43dpq-vDv1E38t-60" vertex="1">
          <mxGeometry y="30" width="250" height="30" as="geometry" />
        </mxCell>
        <mxCell id="nCTSCP43dpq-vDv1E38t-62" value="PK" style="shape=partialRectangle;overflow=hidden;connectable=0;fillColor=none;top=0;left=0;bottom=0;right=0;fontStyle=1;" parent="nCTSCP43dpq-vDv1E38t-61" vertex="1">
          <mxGeometry width="30" height="30" as="geometry">
            <mxRectangle width="30" height="30" as="alternateBounds" />
          </mxGeometry>
        </mxCell>
        <mxCell id="nCTSCP43dpq-vDv1E38t-63" value="Id int NOT NULL " style="shape=partialRectangle;overflow=hidden;connectable=0;fillColor=none;top=0;left=0;bottom=0;right=0;align=left;spacingLeft=6;fontStyle=5;" parent="nCTSCP43dpq-vDv1E38t-61" vertex="1">
          <mxGeometry x="30" width="220" height="30" as="geometry">
            <mxRectangle width="220" height="30" as="alternateBounds" />
          </mxGeometry>
        </mxCell>
        <mxCell id="nCTSCP43dpq-vDv1E38t-64" value="" style="shape=partialRectangle;collapsible=0;dropTarget=0;pointerEvents=0;fillColor=none;points=[[0,0.5],[1,0.5]];portConstraint=eastwest;top=0;left=0;right=0;bottom=0;" parent="nCTSCP43dpq-vDv1E38t-60" vertex="1">
          <mxGeometry y="60" width="250" height="30" as="geometry" />
        </mxCell>
        <mxCell id="nCTSCP43dpq-vDv1E38t-65" value="" style="shape=partialRectangle;overflow=hidden;connectable=0;fillColor=none;top=0;left=0;bottom=0;right=0;" parent="nCTSCP43dpq-vDv1E38t-64" vertex="1">
          <mxGeometry width="30" height="30" as="geometry">
            <mxRectangle width="30" height="30" as="alternateBounds" />
          </mxGeometry>
        </mxCell>
        <mxCell id="nCTSCP43dpq-vDv1E38t-66" value="Sku string NOT NULL" style="shape=partialRectangle;overflow=hidden;connectable=0;fillColor=none;top=0;left=0;bottom=0;right=0;align=left;spacingLeft=6;" parent="nCTSCP43dpq-vDv1E38t-64" vertex="1">
          <mxGeometry x="30" width="220" height="30" as="geometry">
            <mxRectangle width="220" height="30" as="alternateBounds" />
          </mxGeometry>
        </mxCell>
        <mxCell id="N9lahQKiaWfDoqIkXYoZ-50" value="" style="shape=partialRectangle;collapsible=0;dropTarget=0;pointerEvents=0;fillColor=none;points=[[0,0.5],[1,0.5]];portConstraint=eastwest;top=0;left=0;right=0;bottom=0;" parent="nCTSCP43dpq-vDv1E38t-60" vertex="1">
          <mxGeometry y="90" width="250" height="30" as="geometry" />
        </mxCell>
        <mxCell id="N9lahQKiaWfDoqIkXYoZ-51" value="" style="shape=partialRectangle;overflow=hidden;connectable=0;fillColor=none;top=0;left=0;bottom=0;right=0;" parent="N9lahQKiaWfDoqIkXYoZ-50" vertex="1">
          <mxGeometry width="30" height="30" as="geometry">
            <mxRectangle width="30" height="30" as="alternateBounds" />
          </mxGeometry>
        </mxCell>
        <mxCell id="N9lahQKiaWfDoqIkXYoZ-52" value="Name string NOT NULL" style="shape=partialRectangle;overflow=hidden;connectable=0;fillColor=none;top=0;left=0;bottom=0;right=0;align=left;spacingLeft=6;" parent="N9lahQKiaWfDoqIkXYoZ-50" vertex="1">
          <mxGeometry x="30" width="220" height="30" as="geometry">
            <mxRectangle width="220" height="30" as="alternateBounds" />
          </mxGeometry>
        </mxCell>
        <mxCell id="nCTSCP43dpq-vDv1E38t-67" value="" style="shape=partialRectangle;collapsible=0;dropTarget=0;pointerEvents=0;fillColor=none;points=[[0,0.5],[1,0.5]];portConstraint=eastwest;top=0;left=0;right=0;bottom=0;" parent="nCTSCP43dpq-vDv1E38t-60" vertex="1">
          <mxGeometry y="120" width="250" height="30" as="geometry" />
        </mxCell>
        <mxCell id="nCTSCP43dpq-vDv1E38t-68" value="" style="shape=partialRectangle;overflow=hidden;connectable=0;fillColor=none;top=0;left=0;bottom=0;right=0;" parent="nCTSCP43dpq-vDv1E38t-67" vertex="1">
          <mxGeometry width="30" height="30" as="geometry">
            <mxRectangle width="30" height="30" as="alternateBounds" />
          </mxGeometry>
        </mxCell>
        <mxCell id="nCTSCP43dpq-vDv1E38t-69" value="Description string NOT NULL" style="shape=partialRectangle;overflow=hidden;connectable=0;fillColor=none;top=0;left=0;bottom=0;right=0;align=left;spacingLeft=6;" parent="nCTSCP43dpq-vDv1E38t-67" vertex="1">
          <mxGeometry x="30" width="220" height="30" as="geometry">
            <mxRectangle width="220" height="30" as="alternateBounds" />
          </mxGeometry>
        </mxCell>
        <mxCell id="nCTSCP43dpq-vDv1E38t-73" value="" style="shape=partialRectangle;collapsible=0;dropTarget=0;pointerEvents=0;fillColor=none;points=[[0,0.5],[1,0.5]];portConstraint=eastwest;top=0;left=0;right=0;bottom=0;" parent="nCTSCP43dpq-vDv1E38t-60" vertex="1">
          <mxGeometry y="150" width="250" height="30" as="geometry" />
        </mxCell>
        <mxCell id="nCTSCP43dpq-vDv1E38t-74" value="FK" style="shape=partialRectangle;overflow=hidden;connectable=0;fillColor=none;top=0;left=0;bottom=0;right=0;" parent="nCTSCP43dpq-vDv1E38t-73" vertex="1">
          <mxGeometry width="30" height="30" as="geometry">
            <mxRectangle width="30" height="30" as="alternateBounds" />
          </mxGeometry>
        </mxCell>
        <mxCell id="nCTSCP43dpq-vDv1E38t-75" value="EquipmentTypeId int NOT NULL" style="shape=partialRectangle;overflow=hidden;connectable=0;fillColor=none;top=0;left=0;bottom=0;right=0;align=left;spacingLeft=6;" parent="nCTSCP43dpq-vDv1E38t-73" vertex="1">
          <mxGeometry x="30" width="220" height="30" as="geometry">
            <mxRectangle width="220" height="30" as="alternateBounds" />
          </mxGeometry>
        </mxCell>
        <mxCell id="N9lahQKiaWfDoqIkXYoZ-87" value="" style="shape=partialRectangle;collapsible=0;dropTarget=0;pointerEvents=0;fillColor=none;points=[[0,0.5],[1,0.5]];portConstraint=eastwest;top=0;left=0;right=0;bottom=0;" parent="nCTSCP43dpq-vDv1E38t-60" vertex="1">
          <mxGeometry y="180" width="250" height="30" as="geometry" />
        </mxCell>
        <mxCell id="N9lahQKiaWfDoqIkXYoZ-88" value="" style="shape=partialRectangle;overflow=hidden;connectable=0;fillColor=none;top=0;left=0;bottom=0;right=0;" parent="N9lahQKiaWfDoqIkXYoZ-87" vertex="1">
          <mxGeometry width="30" height="30" as="geometry">
            <mxRectangle width="30" height="30" as="alternateBounds" />
          </mxGeometry>
        </mxCell>
        <mxCell id="N9lahQKiaWfDoqIkXYoZ-89" value="IsActive bool NOT NULL" style="shape=partialRectangle;overflow=hidden;connectable=0;fillColor=none;top=0;left=0;bottom=0;right=0;align=left;spacingLeft=6;" parent="N9lahQKiaWfDoqIkXYoZ-87" vertex="1">
          <mxGeometry x="30" width="220" height="30" as="geometry">
            <mxRectangle width="220" height="30" as="alternateBounds" />
          </mxGeometry>
        </mxCell>
        <mxCell id="nCTSCP43dpq-vDv1E38t-76" value="EquipmentTypes" style="shape=table;startSize=30;container=1;collapsible=1;childLayout=tableLayout;fixedRows=1;rowLines=0;fontStyle=1;align=center;resizeLast=1;fillColor=#FFFFCC;" parent="1" vertex="1">
          <mxGeometry x="-190" y="810" width="250" height="130" as="geometry" />
        </mxCell>
        <mxCell id="nCTSCP43dpq-vDv1E38t-77" value="" style="shape=partialRectangle;collapsible=0;dropTarget=0;pointerEvents=0;fillColor=none;points=[[0,0.5],[1,0.5]];portConstraint=eastwest;top=0;left=0;right=0;bottom=1;" parent="nCTSCP43dpq-vDv1E38t-76" vertex="1">
          <mxGeometry y="30" width="250" height="30" as="geometry" />
        </mxCell>
        <mxCell id="nCTSCP43dpq-vDv1E38t-78" value="PK" style="shape=partialRectangle;overflow=hidden;connectable=0;fillColor=none;top=0;left=0;bottom=0;right=0;fontStyle=1;" parent="nCTSCP43dpq-vDv1E38t-77" vertex="1">
          <mxGeometry width="30" height="30" as="geometry">
            <mxRectangle width="30" height="30" as="alternateBounds" />
          </mxGeometry>
        </mxCell>
        <mxCell id="nCTSCP43dpq-vDv1E38t-79" value="Id int NOT NULL " style="shape=partialRectangle;overflow=hidden;connectable=0;fillColor=none;top=0;left=0;bottom=0;right=0;align=left;spacingLeft=6;fontStyle=5;" parent="nCTSCP43dpq-vDv1E38t-77" vertex="1">
          <mxGeometry x="30" width="220" height="30" as="geometry">
            <mxRectangle width="220" height="30" as="alternateBounds" />
          </mxGeometry>
        </mxCell>
        <mxCell id="nCTSCP43dpq-vDv1E38t-80" value="" style="shape=partialRectangle;collapsible=0;dropTarget=0;pointerEvents=0;fillColor=none;points=[[0,0.5],[1,0.5]];portConstraint=eastwest;top=0;left=0;right=0;bottom=0;" parent="nCTSCP43dpq-vDv1E38t-76" vertex="1">
          <mxGeometry y="60" width="250" height="30" as="geometry" />
        </mxCell>
        <mxCell id="nCTSCP43dpq-vDv1E38t-81" value="" style="shape=partialRectangle;overflow=hidden;connectable=0;fillColor=none;top=0;left=0;bottom=0;right=0;" parent="nCTSCP43dpq-vDv1E38t-80" vertex="1">
          <mxGeometry width="30" height="30" as="geometry">
            <mxRectangle width="30" height="30" as="alternateBounds" />
          </mxGeometry>
        </mxCell>
        <mxCell id="nCTSCP43dpq-vDv1E38t-82" value="Name string NOT NULL" style="shape=partialRectangle;overflow=hidden;connectable=0;fillColor=none;top=0;left=0;bottom=0;right=0;align=left;spacingLeft=6;" parent="nCTSCP43dpq-vDv1E38t-80" vertex="1">
          <mxGeometry x="30" width="220" height="30" as="geometry">
            <mxRectangle width="220" height="30" as="alternateBounds" />
          </mxGeometry>
        </mxCell>
        <mxCell id="N9lahQKiaWfDoqIkXYoZ-90" value="" style="shape=partialRectangle;collapsible=0;dropTarget=0;pointerEvents=0;fillColor=none;points=[[0,0.5],[1,0.5]];portConstraint=eastwest;top=0;left=0;right=0;bottom=0;" parent="nCTSCP43dpq-vDv1E38t-76" vertex="1">
          <mxGeometry y="90" width="250" height="30" as="geometry" />
        </mxCell>
        <mxCell id="N9lahQKiaWfDoqIkXYoZ-91" value="" style="shape=partialRectangle;overflow=hidden;connectable=0;fillColor=none;top=0;left=0;bottom=0;right=0;" parent="N9lahQKiaWfDoqIkXYoZ-90" vertex="1">
          <mxGeometry width="30" height="30" as="geometry">
            <mxRectangle width="30" height="30" as="alternateBounds" />
          </mxGeometry>
        </mxCell>
        <mxCell id="N9lahQKiaWfDoqIkXYoZ-92" value="IsActive bool NOT NULL" style="shape=partialRectangle;overflow=hidden;connectable=0;fillColor=none;top=0;left=0;bottom=0;right=0;align=left;spacingLeft=6;" parent="N9lahQKiaWfDoqIkXYoZ-90" vertex="1">
          <mxGeometry x="30" width="220" height="30" as="geometry">
            <mxRectangle width="220" height="30" as="alternateBounds" />
          </mxGeometry>
        </mxCell>
        <mxCell id="nCTSCP43dpq-vDv1E38t-106" value="" style="edgeStyle=orthogonalEdgeStyle;endArrow=ERzeroToMany;startArrow=ERone;endFill=1;startFill=0;entryX=0;entryY=0.5;entryDx=0;entryDy=0;exitX=1;exitY=0.5;exitDx=0;exitDy=0;" parent="1" source="N9lahQKiaWfDoqIkXYoZ-97" target="N9lahQKiaWfDoqIkXYoZ-18" edge="1">
          <mxGeometry width="100" height="100" relative="1" as="geometry">
            <mxPoint x="370" y="410" as="sourcePoint" />
            <mxPoint x="450" y="440" as="targetPoint" />
            <Array as="points">
              <mxPoint x="400" y="215" />
              <mxPoint x="400" y="335" />
            </Array>
          </mxGeometry>
        </mxCell>
        <mxCell id="nCTSCP43dpq-vDv1E38t-113" value="EquipmentsToUsers" style="shape=table;startSize=30;container=1;collapsible=1;childLayout=tableLayout;fixedRows=1;rowLines=0;fontStyle=1;align=center;resizeLast=1;fillColor=#FFFFCC;" parent="1" vertex="1">
          <mxGeometry x="-190" y="260" width="250" height="160" as="geometry" />
        </mxCell>
        <mxCell id="nCTSCP43dpq-vDv1E38t-114" value="" style="shape=partialRectangle;collapsible=0;dropTarget=0;pointerEvents=0;fillColor=none;points=[[0,0.5],[1,0.5]];portConstraint=eastwest;top=0;left=0;right=0;bottom=1;" parent="nCTSCP43dpq-vDv1E38t-113" vertex="1">
          <mxGeometry y="30" width="250" height="30" as="geometry" />
        </mxCell>
        <mxCell id="nCTSCP43dpq-vDv1E38t-115" value="PK" style="shape=partialRectangle;overflow=hidden;connectable=0;fillColor=none;top=0;left=0;bottom=0;right=0;fontStyle=1;" parent="nCTSCP43dpq-vDv1E38t-114" vertex="1">
          <mxGeometry width="30" height="30" as="geometry">
            <mxRectangle width="30" height="30" as="alternateBounds" />
          </mxGeometry>
        </mxCell>
        <mxCell id="nCTSCP43dpq-vDv1E38t-116" value="Id int NOT NULL " style="shape=partialRectangle;overflow=hidden;connectable=0;fillColor=none;top=0;left=0;bottom=0;right=0;align=left;spacingLeft=6;fontStyle=5;" parent="nCTSCP43dpq-vDv1E38t-114" vertex="1">
          <mxGeometry x="30" width="220" height="30" as="geometry">
            <mxRectangle width="220" height="30" as="alternateBounds" />
          </mxGeometry>
        </mxCell>
        <mxCell id="nCTSCP43dpq-vDv1E38t-117" value="" style="shape=partialRectangle;collapsible=0;dropTarget=0;pointerEvents=0;fillColor=none;points=[[0,0.5],[1,0.5]];portConstraint=eastwest;top=0;left=0;right=0;bottom=0;" parent="nCTSCP43dpq-vDv1E38t-113" vertex="1">
          <mxGeometry y="60" width="250" height="30" as="geometry" />
        </mxCell>
        <mxCell id="nCTSCP43dpq-vDv1E38t-118" value="" style="shape=partialRectangle;overflow=hidden;connectable=0;fillColor=none;top=0;left=0;bottom=0;right=0;" parent="nCTSCP43dpq-vDv1E38t-117" vertex="1">
          <mxGeometry width="30" height="30" as="geometry">
            <mxRectangle width="30" height="30" as="alternateBounds" />
          </mxGeometry>
        </mxCell>
        <mxCell id="nCTSCP43dpq-vDv1E38t-119" value="LinkedOn datetime NOT NULL" style="shape=partialRectangle;overflow=hidden;connectable=0;fillColor=none;top=0;left=0;bottom=0;right=0;align=left;spacingLeft=6;" parent="nCTSCP43dpq-vDv1E38t-117" vertex="1">
          <mxGeometry x="30" width="220" height="30" as="geometry">
            <mxRectangle width="220" height="30" as="alternateBounds" />
          </mxGeometry>
        </mxCell>
        <mxCell id="nCTSCP43dpq-vDv1E38t-120" value="" style="shape=partialRectangle;collapsible=0;dropTarget=0;pointerEvents=0;fillColor=none;points=[[0,0.5],[1,0.5]];portConstraint=eastwest;top=0;left=0;right=0;bottom=0;" parent="nCTSCP43dpq-vDv1E38t-113" vertex="1">
          <mxGeometry y="90" width="250" height="30" as="geometry" />
        </mxCell>
        <mxCell id="nCTSCP43dpq-vDv1E38t-121" value="FK" style="shape=partialRectangle;overflow=hidden;connectable=0;fillColor=none;top=0;left=0;bottom=0;right=0;" parent="nCTSCP43dpq-vDv1E38t-120" vertex="1">
          <mxGeometry width="30" height="30" as="geometry">
            <mxRectangle width="30" height="30" as="alternateBounds" />
          </mxGeometry>
        </mxCell>
        <mxCell id="nCTSCP43dpq-vDv1E38t-122" value="UserId int NOT NULL" style="shape=partialRectangle;overflow=hidden;connectable=0;fillColor=none;top=0;left=0;bottom=0;right=0;align=left;spacingLeft=6;" parent="nCTSCP43dpq-vDv1E38t-120" vertex="1">
          <mxGeometry x="30" width="220" height="30" as="geometry">
            <mxRectangle width="220" height="30" as="alternateBounds" />
          </mxGeometry>
        </mxCell>
        <mxCell id="nCTSCP43dpq-vDv1E38t-123" value="" style="shape=partialRectangle;collapsible=0;dropTarget=0;pointerEvents=0;fillColor=none;points=[[0,0.5],[1,0.5]];portConstraint=eastwest;top=0;left=0;right=0;bottom=0;" parent="nCTSCP43dpq-vDv1E38t-113" vertex="1">
          <mxGeometry y="120" width="250" height="30" as="geometry" />
        </mxCell>
        <mxCell id="nCTSCP43dpq-vDv1E38t-124" value="FK" style="shape=partialRectangle;overflow=hidden;connectable=0;fillColor=none;top=0;left=0;bottom=0;right=0;" parent="nCTSCP43dpq-vDv1E38t-123" vertex="1">
          <mxGeometry width="30" height="30" as="geometry">
            <mxRectangle width="30" height="30" as="alternateBounds" />
          </mxGeometry>
        </mxCell>
        <mxCell id="nCTSCP43dpq-vDv1E38t-125" value="EquipmentId int NOT NULL" style="shape=partialRectangle;overflow=hidden;connectable=0;fillColor=none;top=0;left=0;bottom=0;right=0;align=left;spacingLeft=6;" parent="nCTSCP43dpq-vDv1E38t-123" vertex="1">
          <mxGeometry x="30" width="220" height="30" as="geometry">
            <mxRectangle width="220" height="30" as="alternateBounds" />
          </mxGeometry>
        </mxCell>
        <mxCell id="nCTSCP43dpq-vDv1E38t-129" value="EquipmentsToLocations" style="shape=table;startSize=30;container=1;collapsible=1;childLayout=tableLayout;fixedRows=1;rowLines=0;fontStyle=1;align=center;resizeLast=1;fillColor=#FFFFCC;" parent="1" vertex="1">
          <mxGeometry x="450" y="660" width="250" height="190" as="geometry" />
        </mxCell>
        <mxCell id="nCTSCP43dpq-vDv1E38t-130" value="" style="shape=partialRectangle;collapsible=0;dropTarget=0;pointerEvents=0;fillColor=none;points=[[0,0.5],[1,0.5]];portConstraint=eastwest;top=0;left=0;right=0;bottom=1;" parent="nCTSCP43dpq-vDv1E38t-129" vertex="1">
          <mxGeometry y="30" width="250" height="30" as="geometry" />
        </mxCell>
        <mxCell id="nCTSCP43dpq-vDv1E38t-131" value="PK" style="shape=partialRectangle;overflow=hidden;connectable=0;fillColor=none;top=0;left=0;bottom=0;right=0;fontStyle=1;" parent="nCTSCP43dpq-vDv1E38t-130" vertex="1">
          <mxGeometry width="30" height="30" as="geometry">
            <mxRectangle width="30" height="30" as="alternateBounds" />
          </mxGeometry>
        </mxCell>
        <mxCell id="nCTSCP43dpq-vDv1E38t-132" value="Id int NOT NULL " style="shape=partialRectangle;overflow=hidden;connectable=0;fillColor=none;top=0;left=0;bottom=0;right=0;align=left;spacingLeft=6;fontStyle=5;" parent="nCTSCP43dpq-vDv1E38t-130" vertex="1">
          <mxGeometry x="30" width="220" height="30" as="geometry">
            <mxRectangle width="220" height="30" as="alternateBounds" />
          </mxGeometry>
        </mxCell>
        <mxCell id="nCTSCP43dpq-vDv1E38t-133" value="" style="shape=partialRectangle;collapsible=0;dropTarget=0;pointerEvents=0;fillColor=none;points=[[0,0.5],[1,0.5]];portConstraint=eastwest;top=0;left=0;right=0;bottom=0;" parent="nCTSCP43dpq-vDv1E38t-129" vertex="1">
          <mxGeometry y="60" width="250" height="30" as="geometry" />
        </mxCell>
        <mxCell id="nCTSCP43dpq-vDv1E38t-134" value="FK" style="shape=partialRectangle;overflow=hidden;connectable=0;fillColor=none;top=0;left=0;bottom=0;right=0;" parent="nCTSCP43dpq-vDv1E38t-133" vertex="1">
          <mxGeometry width="30" height="30" as="geometry">
            <mxRectangle width="30" height="30" as="alternateBounds" />
          </mxGeometry>
        </mxCell>
        <mxCell id="nCTSCP43dpq-vDv1E38t-135" value="LocationId int NOT NULL" style="shape=partialRectangle;overflow=hidden;connectable=0;fillColor=none;top=0;left=0;bottom=0;right=0;align=left;spacingLeft=6;" parent="nCTSCP43dpq-vDv1E38t-133" vertex="1">
          <mxGeometry x="30" width="220" height="30" as="geometry">
            <mxRectangle width="220" height="30" as="alternateBounds" />
          </mxGeometry>
        </mxCell>
        <mxCell id="nCTSCP43dpq-vDv1E38t-136" value="" style="shape=partialRectangle;collapsible=0;dropTarget=0;pointerEvents=0;fillColor=none;points=[[0,0.5],[1,0.5]];portConstraint=eastwest;top=0;left=0;right=0;bottom=0;" parent="nCTSCP43dpq-vDv1E38t-129" vertex="1">
          <mxGeometry y="90" width="250" height="30" as="geometry" />
        </mxCell>
        <mxCell id="nCTSCP43dpq-vDv1E38t-137" value="FK" style="shape=partialRectangle;overflow=hidden;connectable=0;fillColor=none;top=0;left=0;bottom=0;right=0;" parent="nCTSCP43dpq-vDv1E38t-136" vertex="1">
          <mxGeometry width="30" height="30" as="geometry">
            <mxRectangle width="30" height="30" as="alternateBounds" />
          </mxGeometry>
        </mxCell>
        <mxCell id="nCTSCP43dpq-vDv1E38t-138" value="EquipmentId int NOT NULL" style="shape=partialRectangle;overflow=hidden;connectable=0;fillColor=none;top=0;left=0;bottom=0;right=0;align=left;spacingLeft=6;" parent="nCTSCP43dpq-vDv1E38t-136" vertex="1">
          <mxGeometry x="30" width="220" height="30" as="geometry">
            <mxRectangle width="220" height="30" as="alternateBounds" />
          </mxGeometry>
        </mxCell>
        <mxCell id="nCTSCP43dpq-vDv1E38t-139" value="" style="shape=partialRectangle;collapsible=0;dropTarget=0;pointerEvents=0;fillColor=none;points=[[0,0.5],[1,0.5]];portConstraint=eastwest;top=0;left=0;right=0;bottom=0;" parent="nCTSCP43dpq-vDv1E38t-129" vertex="1">
          <mxGeometry y="120" width="250" height="30" as="geometry" />
        </mxCell>
        <mxCell id="nCTSCP43dpq-vDv1E38t-140" value="" style="shape=partialRectangle;overflow=hidden;connectable=0;fillColor=none;top=0;left=0;bottom=0;right=0;" parent="nCTSCP43dpq-vDv1E38t-139" vertex="1">
          <mxGeometry width="30" height="30" as="geometry">
            <mxRectangle width="30" height="30" as="alternateBounds" />
          </mxGeometry>
        </mxCell>
        <mxCell id="nCTSCP43dpq-vDv1E38t-141" value="LinkedOn DateTime NOT NULL" style="shape=partialRectangle;overflow=hidden;connectable=0;fillColor=none;top=0;left=0;bottom=0;right=0;align=left;spacingLeft=6;" parent="nCTSCP43dpq-vDv1E38t-139" vertex="1">
          <mxGeometry x="30" width="220" height="30" as="geometry">
            <mxRectangle width="220" height="30" as="alternateBounds" />
          </mxGeometry>
        </mxCell>
        <mxCell id="N9lahQKiaWfDoqIkXYoZ-47" value="" style="shape=partialRectangle;collapsible=0;dropTarget=0;pointerEvents=0;fillColor=none;points=[[0,0.5],[1,0.5]];portConstraint=eastwest;top=0;left=0;right=0;bottom=0;" parent="nCTSCP43dpq-vDv1E38t-129" vertex="1">
          <mxGeometry y="150" width="250" height="30" as="geometry" />
        </mxCell>
        <mxCell id="N9lahQKiaWfDoqIkXYoZ-48" value="" style="shape=partialRectangle;overflow=hidden;connectable=0;fillColor=none;top=0;left=0;bottom=0;right=0;" parent="N9lahQKiaWfDoqIkXYoZ-47" vertex="1">
          <mxGeometry width="30" height="30" as="geometry">
            <mxRectangle width="30" height="30" as="alternateBounds" />
          </mxGeometry>
        </mxCell>
        <mxCell id="N9lahQKiaWfDoqIkXYoZ-49" value="LinkedBy int NOT NULL" style="shape=partialRectangle;overflow=hidden;connectable=0;fillColor=none;top=0;left=0;bottom=0;right=0;align=left;spacingLeft=6;" parent="N9lahQKiaWfDoqIkXYoZ-47" vertex="1">
          <mxGeometry x="30" width="220" height="30" as="geometry">
            <mxRectangle width="220" height="30" as="alternateBounds" />
          </mxGeometry>
        </mxCell>
        <mxCell id="nCTSCP43dpq-vDv1E38t-143" style="edgeStyle=orthogonalEdgeStyle;orthogonalLoop=1;jettySize=auto;html=1;exitX=1;exitY=0.5;exitDx=0;exitDy=0;entryX=0;entryY=0.5;entryDx=0;entryDy=0;endArrow=ERzeroToMany;endFill=0;startArrow=ERone;startFill=0;rounded=1;" parent="1" source="nCTSCP43dpq-vDv1E38t-35" target="nCTSCP43dpq-vDv1E38t-133" edge="1">
          <mxGeometry relative="1" as="geometry" />
        </mxCell>
        <mxCell id="nCTSCP43dpq-vDv1E38t-144" style="edgeStyle=orthogonalEdgeStyle;orthogonalLoop=1;jettySize=auto;html=1;exitX=1;exitY=0.5;exitDx=0;exitDy=0;entryX=0;entryY=0.5;entryDx=0;entryDy=0;endArrow=ERzeroToMany;endFill=0;startArrow=ERone;startFill=0;rounded=1;" parent="1" source="nCTSCP43dpq-vDv1E38t-61" target="nCTSCP43dpq-vDv1E38t-136" edge="1">
          <mxGeometry relative="1" as="geometry" />
        </mxCell>
        <mxCell id="nCTSCP43dpq-vDv1E38t-145" style="edgeStyle=orthogonalEdgeStyle;orthogonalLoop=1;jettySize=auto;html=1;exitX=1;exitY=0.5;exitDx=0;exitDy=0;entryX=0;entryY=0.5;entryDx=0;entryDy=0;rounded=1;endArrow=ERzeroToMany;endFill=0;startArrow=ERone;startFill=0;" parent="1" source="nCTSCP43dpq-vDv1E38t-77" target="nCTSCP43dpq-vDv1E38t-73" edge="1">
          <mxGeometry relative="1" as="geometry" />
        </mxCell>
        <mxCell id="N9lahQKiaWfDoqIkXYoZ-11" value="PunchEntriesHistories" style="shape=table;startSize=30;container=1;collapsible=1;childLayout=tableLayout;fixedRows=1;rowLines=0;fontStyle=1;align=center;resizeLast=1;fillColor=#FFFFCC;" parent="1" vertex="1">
          <mxGeometry x="450" y="230" width="250" height="370" as="geometry" />
        </mxCell>
        <mxCell id="N9lahQKiaWfDoqIkXYoZ-12" value="" style="shape=partialRectangle;collapsible=0;dropTarget=0;pointerEvents=0;fillColor=none;points=[[0,0.5],[1,0.5]];portConstraint=eastwest;top=0;left=0;right=0;bottom=1;" parent="N9lahQKiaWfDoqIkXYoZ-11" vertex="1">
          <mxGeometry y="30" width="250" height="30" as="geometry" />
        </mxCell>
        <mxCell id="N9lahQKiaWfDoqIkXYoZ-13" value="PK" style="shape=partialRectangle;overflow=hidden;connectable=0;fillColor=none;top=0;left=0;bottom=0;right=0;fontStyle=1;" parent="N9lahQKiaWfDoqIkXYoZ-12" vertex="1">
          <mxGeometry width="30" height="30" as="geometry">
            <mxRectangle width="30" height="30" as="alternateBounds" />
          </mxGeometry>
        </mxCell>
        <mxCell id="N9lahQKiaWfDoqIkXYoZ-14" value="Id int NOT NULL " style="shape=partialRectangle;overflow=hidden;connectable=0;fillColor=none;top=0;left=0;bottom=0;right=0;align=left;spacingLeft=6;fontStyle=5;" parent="N9lahQKiaWfDoqIkXYoZ-12" vertex="1">
          <mxGeometry x="30" width="220" height="30" as="geometry">
            <mxRectangle width="220" height="30" as="alternateBounds" />
          </mxGeometry>
        </mxCell>
        <mxCell id="N9lahQKiaWfDoqIkXYoZ-15" value="" style="shape=partialRectangle;collapsible=0;dropTarget=0;pointerEvents=0;fillColor=none;points=[[0,0.5],[1,0.5]];portConstraint=eastwest;top=0;left=0;right=0;bottom=0;" parent="N9lahQKiaWfDoqIkXYoZ-11" vertex="1">
          <mxGeometry y="60" width="250" height="30" as="geometry" />
        </mxCell>
        <mxCell id="N9lahQKiaWfDoqIkXYoZ-16" value="FK" style="shape=partialRectangle;overflow=hidden;connectable=0;fillColor=none;top=0;left=0;bottom=0;right=0;" parent="N9lahQKiaWfDoqIkXYoZ-15" vertex="1">
          <mxGeometry width="30" height="30" as="geometry">
            <mxRectangle width="30" height="30" as="alternateBounds" />
          </mxGeometry>
        </mxCell>
        <mxCell id="N9lahQKiaWfDoqIkXYoZ-17" value="PunchEntryId int NOT NULL" style="shape=partialRectangle;overflow=hidden;connectable=0;fillColor=none;top=0;left=0;bottom=0;right=0;align=left;spacingLeft=6;" parent="N9lahQKiaWfDoqIkXYoZ-15" vertex="1">
          <mxGeometry x="30" width="220" height="30" as="geometry">
            <mxRectangle width="220" height="30" as="alternateBounds" />
          </mxGeometry>
        </mxCell>
        <mxCell id="N9lahQKiaWfDoqIkXYoZ-18" value="" style="shape=partialRectangle;collapsible=0;dropTarget=0;pointerEvents=0;fillColor=none;points=[[0,0.5],[1,0.5]];portConstraint=eastwest;top=0;left=0;right=0;bottom=0;" parent="N9lahQKiaWfDoqIkXYoZ-11" vertex="1">
          <mxGeometry y="90" width="250" height="30" as="geometry" />
        </mxCell>
        <mxCell id="N9lahQKiaWfDoqIkXYoZ-19" value="FK" style="shape=partialRectangle;overflow=hidden;connectable=0;fillColor=none;top=0;left=0;bottom=0;right=0;" parent="N9lahQKiaWfDoqIkXYoZ-18" vertex="1">
          <mxGeometry width="30" height="30" as="geometry">
            <mxRectangle width="30" height="30" as="alternateBounds" />
          </mxGeometry>
        </mxCell>
        <mxCell id="N9lahQKiaWfDoqIkXYoZ-20" value="DeviceId int NOT NULL" style="shape=partialRectangle;overflow=hidden;connectable=0;fillColor=none;top=0;left=0;bottom=0;right=0;align=left;spacingLeft=6;" parent="N9lahQKiaWfDoqIkXYoZ-18" vertex="1">
          <mxGeometry x="30" width="220" height="30" as="geometry">
            <mxRectangle width="220" height="30" as="alternateBounds" />
          </mxGeometry>
        </mxCell>
        <mxCell id="N9lahQKiaWfDoqIkXYoZ-21" value="" style="shape=partialRectangle;collapsible=0;dropTarget=0;pointerEvents=0;fillColor=none;points=[[0,0.5],[1,0.5]];portConstraint=eastwest;top=0;left=0;right=0;bottom=0;" parent="N9lahQKiaWfDoqIkXYoZ-11" vertex="1">
          <mxGeometry y="120" width="250" height="30" as="geometry" />
        </mxCell>
        <mxCell id="N9lahQKiaWfDoqIkXYoZ-22" value="" style="shape=partialRectangle;overflow=hidden;connectable=0;fillColor=none;top=0;left=0;bottom=0;right=0;" parent="N9lahQKiaWfDoqIkXYoZ-21" vertex="1">
          <mxGeometry width="30" height="30" as="geometry">
            <mxRectangle width="30" height="30" as="alternateBounds" />
          </mxGeometry>
        </mxCell>
        <mxCell id="N9lahQKiaWfDoqIkXYoZ-23" value="PunchType string NOT NULL" style="shape=partialRectangle;overflow=hidden;connectable=0;fillColor=none;top=0;left=0;bottom=0;right=0;align=left;spacingLeft=6;" parent="N9lahQKiaWfDoqIkXYoZ-21" vertex="1">
          <mxGeometry x="30" width="220" height="30" as="geometry">
            <mxRectangle width="220" height="30" as="alternateBounds" />
          </mxGeometry>
        </mxCell>
        <mxCell id="N9lahQKiaWfDoqIkXYoZ-24" value="" style="shape=partialRectangle;collapsible=0;dropTarget=0;pointerEvents=0;fillColor=none;points=[[0,0.5],[1,0.5]];portConstraint=eastwest;top=0;left=0;right=0;bottom=0;" parent="N9lahQKiaWfDoqIkXYoZ-11" vertex="1">
          <mxGeometry y="150" width="250" height="30" as="geometry" />
        </mxCell>
        <mxCell id="N9lahQKiaWfDoqIkXYoZ-25" value="" style="shape=partialRectangle;overflow=hidden;connectable=0;fillColor=none;top=0;left=0;bottom=0;right=0;" parent="N9lahQKiaWfDoqIkXYoZ-24" vertex="1">
          <mxGeometry width="30" height="30" as="geometry">
            <mxRectangle width="30" height="30" as="alternateBounds" />
          </mxGeometry>
        </mxCell>
        <mxCell id="N9lahQKiaWfDoqIkXYoZ-26" value="DateTime datetime NOT NULL" style="shape=partialRectangle;overflow=hidden;connectable=0;fillColor=none;top=0;left=0;bottom=0;right=0;align=left;spacingLeft=6;" parent="N9lahQKiaWfDoqIkXYoZ-24" vertex="1">
          <mxGeometry x="30" width="220" height="30" as="geometry">
            <mxRectangle width="220" height="30" as="alternateBounds" />
          </mxGeometry>
        </mxCell>
        <mxCell id="N9lahQKiaWfDoqIkXYoZ-53" value="" style="shape=partialRectangle;collapsible=0;dropTarget=0;pointerEvents=0;fillColor=none;points=[[0,0.5],[1,0.5]];portConstraint=eastwest;top=0;left=0;right=0;bottom=0;" parent="N9lahQKiaWfDoqIkXYoZ-11" vertex="1">
          <mxGeometry y="180" width="250" height="30" as="geometry" />
        </mxCell>
        <mxCell id="N9lahQKiaWfDoqIkXYoZ-54" value="" style="shape=partialRectangle;overflow=hidden;connectable=0;fillColor=none;top=0;left=0;bottom=0;right=0;" parent="N9lahQKiaWfDoqIkXYoZ-53" vertex="1">
          <mxGeometry width="30" height="30" as="geometry">
            <mxRectangle width="30" height="30" as="alternateBounds" />
          </mxGeometry>
        </mxCell>
        <mxCell id="N9lahQKiaWfDoqIkXYoZ-55" value="EffectiveDateTime datetime NOT NULL" style="shape=partialRectangle;overflow=hidden;connectable=0;fillColor=none;top=0;left=0;bottom=0;right=0;align=left;spacingLeft=6;" parent="N9lahQKiaWfDoqIkXYoZ-53" vertex="1">
          <mxGeometry x="30" width="220" height="30" as="geometry">
            <mxRectangle width="220" height="30" as="alternateBounds" />
          </mxGeometry>
        </mxCell>
        <mxCell id="N9lahQKiaWfDoqIkXYoZ-27" value="" style="shape=partialRectangle;collapsible=0;dropTarget=0;pointerEvents=0;fillColor=none;points=[[0,0.5],[1,0.5]];portConstraint=eastwest;top=0;left=0;right=0;bottom=0;" parent="N9lahQKiaWfDoqIkXYoZ-11" vertex="1">
          <mxGeometry y="210" width="250" height="30" as="geometry" />
        </mxCell>
        <mxCell id="N9lahQKiaWfDoqIkXYoZ-28" value="" style="shape=partialRectangle;overflow=hidden;connectable=0;fillColor=none;top=0;left=0;bottom=0;right=0;" parent="N9lahQKiaWfDoqIkXYoZ-27" vertex="1">
          <mxGeometry width="30" height="30" as="geometry">
            <mxRectangle width="30" height="30" as="alternateBounds" />
          </mxGeometry>
        </mxCell>
        <mxCell id="N9lahQKiaWfDoqIkXYoZ-29" value="Latitude double NOT NULL" style="shape=partialRectangle;overflow=hidden;connectable=0;fillColor=none;top=0;left=0;bottom=0;right=0;align=left;spacingLeft=6;" parent="N9lahQKiaWfDoqIkXYoZ-27" vertex="1">
          <mxGeometry x="30" width="220" height="30" as="geometry">
            <mxRectangle width="220" height="30" as="alternateBounds" />
          </mxGeometry>
        </mxCell>
        <mxCell id="N9lahQKiaWfDoqIkXYoZ-30" value="" style="shape=partialRectangle;collapsible=0;dropTarget=0;pointerEvents=0;fillColor=none;points=[[0,0.5],[1,0.5]];portConstraint=eastwest;top=0;left=0;right=0;bottom=0;" parent="N9lahQKiaWfDoqIkXYoZ-11" vertex="1">
          <mxGeometry y="240" width="250" height="30" as="geometry" />
        </mxCell>
        <mxCell id="N9lahQKiaWfDoqIkXYoZ-31" value="" style="shape=partialRectangle;overflow=hidden;connectable=0;fillColor=none;top=0;left=0;bottom=0;right=0;" parent="N9lahQKiaWfDoqIkXYoZ-30" vertex="1">
          <mxGeometry width="30" height="30" as="geometry">
            <mxRectangle width="30" height="30" as="alternateBounds" />
          </mxGeometry>
        </mxCell>
        <mxCell id="N9lahQKiaWfDoqIkXYoZ-32" value="Longitude double NOT NULL" style="shape=partialRectangle;overflow=hidden;connectable=0;fillColor=none;top=0;left=0;bottom=0;right=0;align=left;spacingLeft=6;" parent="N9lahQKiaWfDoqIkXYoZ-30" vertex="1">
          <mxGeometry x="30" width="220" height="30" as="geometry">
            <mxRectangle width="220" height="30" as="alternateBounds" />
          </mxGeometry>
        </mxCell>
        <mxCell id="N9lahQKiaWfDoqIkXYoZ-33" value="" style="shape=partialRectangle;collapsible=0;dropTarget=0;pointerEvents=0;fillColor=none;points=[[0,0.5],[1,0.5]];portConstraint=eastwest;top=0;left=0;right=0;bottom=0;" parent="N9lahQKiaWfDoqIkXYoZ-11" vertex="1">
          <mxGeometry y="270" width="250" height="30" as="geometry" />
        </mxCell>
        <mxCell id="N9lahQKiaWfDoqIkXYoZ-34" value="" style="shape=partialRectangle;overflow=hidden;connectable=0;fillColor=none;top=0;left=0;bottom=0;right=0;" parent="N9lahQKiaWfDoqIkXYoZ-33" vertex="1">
          <mxGeometry width="30" height="30" as="geometry">
            <mxRectangle width="30" height="30" as="alternateBounds" />
          </mxGeometry>
        </mxCell>
        <mxCell id="N9lahQKiaWfDoqIkXYoZ-35" value="Action string NOT NULL" style="shape=partialRectangle;overflow=hidden;connectable=0;fillColor=none;top=0;left=0;bottom=0;right=0;align=left;spacingLeft=6;" parent="N9lahQKiaWfDoqIkXYoZ-33" vertex="1">
          <mxGeometry x="30" width="220" height="30" as="geometry">
            <mxRectangle width="220" height="30" as="alternateBounds" />
          </mxGeometry>
        </mxCell>
        <mxCell id="N9lahQKiaWfDoqIkXYoZ-36" value="" style="shape=partialRectangle;collapsible=0;dropTarget=0;pointerEvents=0;fillColor=none;points=[[0,0.5],[1,0.5]];portConstraint=eastwest;top=0;left=0;right=0;bottom=0;" parent="N9lahQKiaWfDoqIkXYoZ-11" vertex="1">
          <mxGeometry y="300" width="250" height="30" as="geometry" />
        </mxCell>
        <mxCell id="N9lahQKiaWfDoqIkXYoZ-37" value="" style="shape=partialRectangle;overflow=hidden;connectable=0;fillColor=none;top=0;left=0;bottom=0;right=0;" parent="N9lahQKiaWfDoqIkXYoZ-36" vertex="1">
          <mxGeometry width="30" height="30" as="geometry">
            <mxRectangle width="30" height="30" as="alternateBounds" />
          </mxGeometry>
        </mxCell>
        <mxCell id="N9lahQKiaWfDoqIkXYoZ-38" value="ActionById int NOT NULL" style="shape=partialRectangle;overflow=hidden;connectable=0;fillColor=none;top=0;left=0;bottom=0;right=0;align=left;spacingLeft=6;" parent="N9lahQKiaWfDoqIkXYoZ-36" vertex="1">
          <mxGeometry x="30" width="220" height="30" as="geometry">
            <mxRectangle width="220" height="30" as="alternateBounds" />
          </mxGeometry>
        </mxCell>
        <mxCell id="N9lahQKiaWfDoqIkXYoZ-39" value="" style="shape=partialRectangle;collapsible=0;dropTarget=0;pointerEvents=0;fillColor=none;points=[[0,0.5],[1,0.5]];portConstraint=eastwest;top=0;left=0;right=0;bottom=0;" parent="N9lahQKiaWfDoqIkXYoZ-11" vertex="1">
          <mxGeometry y="330" width="250" height="30" as="geometry" />
        </mxCell>
        <mxCell id="N9lahQKiaWfDoqIkXYoZ-40" value="" style="shape=partialRectangle;overflow=hidden;connectable=0;fillColor=none;top=0;left=0;bottom=0;right=0;" parent="N9lahQKiaWfDoqIkXYoZ-39" vertex="1">
          <mxGeometry width="30" height="30" as="geometry">
            <mxRectangle width="30" height="30" as="alternateBounds" />
          </mxGeometry>
        </mxCell>
        <mxCell id="N9lahQKiaWfDoqIkXYoZ-41" value="TimeStamp DateTime NOT NULL" style="shape=partialRectangle;overflow=hidden;connectable=0;fillColor=none;top=0;left=0;bottom=0;right=0;align=left;spacingLeft=6;" parent="N9lahQKiaWfDoqIkXYoZ-39" vertex="1">
          <mxGeometry x="30" width="220" height="30" as="geometry">
            <mxRectangle width="220" height="30" as="alternateBounds" />
          </mxGeometry>
        </mxCell>
        <mxCell id="N9lahQKiaWfDoqIkXYoZ-42" style="edgeStyle=orthogonalEdgeStyle;orthogonalLoop=1;jettySize=auto;html=1;exitX=1;exitY=0.5;exitDx=0;exitDy=0;entryX=1;entryY=0.5;entryDx=0;entryDy=0;startArrow=ERone;startFill=0;endArrow=ERoneToMany;endFill=0;rounded=1;" parent="1" source="C-vyLk0tnHw3VtMMgP7b-3" target="N9lahQKiaWfDoqIkXYoZ-15" edge="1">
          <mxGeometry relative="1" as="geometry" />
        </mxCell>
        <mxCell id="N9lahQKiaWfDoqIkXYoZ-43" value="&lt;ul&gt;&lt;li&gt;Self&lt;/li&gt;&lt;li&gt;Punch&lt;/li&gt;&lt;li&gt;Edit&lt;/li&gt;&lt;li&gt;Void&lt;/li&gt;&lt;/ul&gt;" style="text;strokeColor=default;fillColor=none;html=1;whiteSpace=wrap;verticalAlign=middle;overflow=hidden;perimeterSpacing=0;" parent="1" vertex="1">
          <mxGeometry x="740" y="475" width="100" height="80" as="geometry" />
        </mxCell>
        <mxCell id="N9lahQKiaWfDoqIkXYoZ-46" style="edgeStyle=orthogonalEdgeStyle;rounded=0;orthogonalLoop=1;jettySize=auto;html=1;exitX=1;exitY=0.5;exitDx=0;exitDy=0;entryX=0;entryY=0.5;entryDx=0;entryDy=0;" parent="1" source="N9lahQKiaWfDoqIkXYoZ-33" target="N9lahQKiaWfDoqIkXYoZ-43" edge="1">
          <mxGeometry relative="1" as="geometry" />
        </mxCell>
        <mxCell id="N9lahQKiaWfDoqIkXYoZ-56" style="edgeStyle=orthogonalEdgeStyle;rounded=1;orthogonalLoop=1;jettySize=auto;html=1;exitX=0;exitY=0.5;exitDx=0;exitDy=0;entryX=1;entryY=0.5;entryDx=0;entryDy=0;endArrow=ERzeroToMany;endFill=0;startArrow=ERone;startFill=0;" parent="1" source="C-vyLk0tnHw3VtMMgP7b-24" target="nCTSCP43dpq-vDv1E38t-120" edge="1">
          <mxGeometry relative="1" as="geometry">
            <Array as="points">
              <mxPoint x="80" y="-15" />
              <mxPoint x="80" y="365" />
            </Array>
          </mxGeometry>
        </mxCell>
        <mxCell id="N9lahQKiaWfDoqIkXYoZ-109" style="edgeStyle=orthogonalEdgeStyle;rounded=1;orthogonalLoop=1;jettySize=auto;html=1;exitX=1;exitY=0.25;exitDx=0;exitDy=0;entryX=0;entryY=0.5;entryDx=0;entryDy=0;startArrow=ERone;startFill=0;endArrow=ERzeroToMany;endFill=0;" parent="1" source="N9lahQKiaWfDoqIkXYoZ-71" target="N9lahQKiaWfDoqIkXYoZ-110" edge="1">
          <mxGeometry relative="1" as="geometry" />
        </mxCell>
        <mxCell id="N9lahQKiaWfDoqIkXYoZ-71" value="DepartmentsToLocations" style="shape=table;startSize=30;container=1;collapsible=1;childLayout=tableLayout;fixedRows=1;rowLines=0;fontStyle=1;align=center;resizeLast=1;fillColor=#FFFFCC;" parent="1" vertex="1">
          <mxGeometry x="-190" y="510" width="250" height="160" as="geometry" />
        </mxCell>
        <mxCell id="N9lahQKiaWfDoqIkXYoZ-72" value="" style="shape=partialRectangle;collapsible=0;dropTarget=0;pointerEvents=0;fillColor=none;points=[[0,0.5],[1,0.5]];portConstraint=eastwest;top=0;left=0;right=0;bottom=1;" parent="N9lahQKiaWfDoqIkXYoZ-71" vertex="1">
          <mxGeometry y="30" width="250" height="30" as="geometry" />
        </mxCell>
        <mxCell id="N9lahQKiaWfDoqIkXYoZ-73" value="PK" style="shape=partialRectangle;overflow=hidden;connectable=0;fillColor=none;top=0;left=0;bottom=0;right=0;fontStyle=1;" parent="N9lahQKiaWfDoqIkXYoZ-72" vertex="1">
          <mxGeometry width="30" height="30" as="geometry">
            <mxRectangle width="30" height="30" as="alternateBounds" />
          </mxGeometry>
        </mxCell>
        <mxCell id="N9lahQKiaWfDoqIkXYoZ-74" value="Id int NOT NULL " style="shape=partialRectangle;overflow=hidden;connectable=0;fillColor=none;top=0;left=0;bottom=0;right=0;align=left;spacingLeft=6;fontStyle=5;" parent="N9lahQKiaWfDoqIkXYoZ-72" vertex="1">
          <mxGeometry x="30" width="220" height="30" as="geometry">
            <mxRectangle width="220" height="30" as="alternateBounds" />
          </mxGeometry>
        </mxCell>
        <mxCell id="N9lahQKiaWfDoqIkXYoZ-75" value="" style="shape=partialRectangle;collapsible=0;dropTarget=0;pointerEvents=0;fillColor=none;points=[[0,0.5],[1,0.5]];portConstraint=eastwest;top=0;left=0;right=0;bottom=0;" parent="N9lahQKiaWfDoqIkXYoZ-71" vertex="1">
          <mxGeometry y="60" width="250" height="30" as="geometry" />
        </mxCell>
        <mxCell id="N9lahQKiaWfDoqIkXYoZ-76" value="FK" style="shape=partialRectangle;overflow=hidden;connectable=0;fillColor=none;top=0;left=0;bottom=0;right=0;" parent="N9lahQKiaWfDoqIkXYoZ-75" vertex="1">
          <mxGeometry width="30" height="30" as="geometry">
            <mxRectangle width="30" height="30" as="alternateBounds" />
          </mxGeometry>
        </mxCell>
        <mxCell id="N9lahQKiaWfDoqIkXYoZ-77" value="LocationId int NOT NULL" style="shape=partialRectangle;overflow=hidden;connectable=0;fillColor=none;top=0;left=0;bottom=0;right=0;align=left;spacingLeft=6;" parent="N9lahQKiaWfDoqIkXYoZ-75" vertex="1">
          <mxGeometry x="30" width="220" height="30" as="geometry">
            <mxRectangle width="220" height="30" as="alternateBounds" />
          </mxGeometry>
        </mxCell>
        <mxCell id="N9lahQKiaWfDoqIkXYoZ-78" value="" style="shape=partialRectangle;collapsible=0;dropTarget=0;pointerEvents=0;fillColor=none;points=[[0,0.5],[1,0.5]];portConstraint=eastwest;top=0;left=0;right=0;bottom=0;" parent="N9lahQKiaWfDoqIkXYoZ-71" vertex="1">
          <mxGeometry y="90" width="250" height="30" as="geometry" />
        </mxCell>
        <mxCell id="N9lahQKiaWfDoqIkXYoZ-79" value="FK" style="shape=partialRectangle;overflow=hidden;connectable=0;fillColor=none;top=0;left=0;bottom=0;right=0;" parent="N9lahQKiaWfDoqIkXYoZ-78" vertex="1">
          <mxGeometry width="30" height="30" as="geometry">
            <mxRectangle width="30" height="30" as="alternateBounds" />
          </mxGeometry>
        </mxCell>
        <mxCell id="N9lahQKiaWfDoqIkXYoZ-80" value="DepartmentId int NOT NULL" style="shape=partialRectangle;overflow=hidden;connectable=0;fillColor=none;top=0;left=0;bottom=0;right=0;align=left;spacingLeft=6;" parent="N9lahQKiaWfDoqIkXYoZ-78" vertex="1">
          <mxGeometry x="30" width="220" height="30" as="geometry">
            <mxRectangle width="220" height="30" as="alternateBounds" />
          </mxGeometry>
        </mxCell>
        <mxCell id="N9lahQKiaWfDoqIkXYoZ-93" value="" style="shape=partialRectangle;collapsible=0;dropTarget=0;pointerEvents=0;fillColor=none;points=[[0,0.5],[1,0.5]];portConstraint=eastwest;top=0;left=0;right=0;bottom=0;" parent="N9lahQKiaWfDoqIkXYoZ-71" vertex="1">
          <mxGeometry y="120" width="250" height="30" as="geometry" />
        </mxCell>
        <mxCell id="N9lahQKiaWfDoqIkXYoZ-94" value=" " style="shape=partialRectangle;overflow=hidden;connectable=0;fillColor=none;top=0;left=0;bottom=0;right=0;" parent="N9lahQKiaWfDoqIkXYoZ-93" vertex="1">
          <mxGeometry width="30" height="30" as="geometry">
            <mxRectangle width="30" height="30" as="alternateBounds" />
          </mxGeometry>
        </mxCell>
        <mxCell id="N9lahQKiaWfDoqIkXYoZ-95" value="IsActive bool NOT NULL" style="shape=partialRectangle;overflow=hidden;connectable=0;fillColor=none;top=0;left=0;bottom=0;right=0;align=left;spacingLeft=6;" parent="N9lahQKiaWfDoqIkXYoZ-93" vertex="1">
          <mxGeometry x="30" width="220" height="30" as="geometry">
            <mxRectangle width="220" height="30" as="alternateBounds" />
          </mxGeometry>
        </mxCell>
        <mxCell id="N9lahQKiaWfDoqIkXYoZ-81" style="edgeStyle=orthogonalEdgeStyle;rounded=1;orthogonalLoop=1;jettySize=auto;html=1;exitX=0;exitY=0.5;exitDx=0;exitDy=0;startArrow=ERone;startFill=0;endArrow=ERzeroToMany;endFill=0;entryX=0;entryY=0.5;entryDx=0;entryDy=0;" parent="1" source="nCTSCP43dpq-vDv1E38t-61" target="nCTSCP43dpq-vDv1E38t-123" edge="1">
          <mxGeometry relative="1" as="geometry">
            <mxPoint x="-320" y="400" as="targetPoint" />
            <Array as="points">
              <mxPoint x="-210" y="765" />
              <mxPoint x="-210" y="395" />
            </Array>
          </mxGeometry>
        </mxCell>
        <mxCell id="N9lahQKiaWfDoqIkXYoZ-83" style="edgeStyle=orthogonalEdgeStyle;rounded=1;orthogonalLoop=1;jettySize=auto;html=1;exitX=0;exitY=0.5;exitDx=0;exitDy=0;entryX=1;entryY=0.5;entryDx=0;entryDy=0;endArrow=ERzeroToMany;endFill=0;startArrow=ERone;startFill=0;" parent="1" source="nCTSCP43dpq-vDv1E38t-48" target="N9lahQKiaWfDoqIkXYoZ-78" edge="1">
          <mxGeometry relative="1" as="geometry" />
        </mxCell>
        <mxCell id="N9lahQKiaWfDoqIkXYoZ-96" value="Devices" style="shape=table;startSize=30;container=1;collapsible=1;childLayout=tableLayout;fixedRows=1;rowLines=0;fontStyle=1;align=center;resizeLast=1;fillColor=#FFFFCC;" parent="1" vertex="1">
          <mxGeometry x="120" y="170" width="250" height="190" as="geometry" />
        </mxCell>
        <mxCell id="N9lahQKiaWfDoqIkXYoZ-97" value="" style="shape=partialRectangle;collapsible=0;dropTarget=0;pointerEvents=0;fillColor=none;points=[[0,0.5],[1,0.5]];portConstraint=eastwest;top=0;left=0;right=0;bottom=1;" parent="N9lahQKiaWfDoqIkXYoZ-96" vertex="1">
          <mxGeometry y="30" width="250" height="30" as="geometry" />
        </mxCell>
        <mxCell id="N9lahQKiaWfDoqIkXYoZ-98" value="PK" style="shape=partialRectangle;overflow=hidden;connectable=0;fillColor=none;top=0;left=0;bottom=0;right=0;fontStyle=1;" parent="N9lahQKiaWfDoqIkXYoZ-97" vertex="1">
          <mxGeometry width="30" height="30" as="geometry">
            <mxRectangle width="30" height="30" as="alternateBounds" />
          </mxGeometry>
        </mxCell>
        <mxCell id="N9lahQKiaWfDoqIkXYoZ-99" value="Id int NOT NULL " style="shape=partialRectangle;overflow=hidden;connectable=0;fillColor=none;top=0;left=0;bottom=0;right=0;align=left;spacingLeft=6;fontStyle=5;" parent="N9lahQKiaWfDoqIkXYoZ-97" vertex="1">
          <mxGeometry x="30" width="220" height="30" as="geometry">
            <mxRectangle width="220" height="30" as="alternateBounds" />
          </mxGeometry>
        </mxCell>
        <mxCell id="N9lahQKiaWfDoqIkXYoZ-100" value="" style="shape=partialRectangle;collapsible=0;dropTarget=0;pointerEvents=0;fillColor=none;points=[[0,0.5],[1,0.5]];portConstraint=eastwest;top=0;left=0;right=0;bottom=0;" parent="N9lahQKiaWfDoqIkXYoZ-96" vertex="1">
          <mxGeometry y="60" width="250" height="30" as="geometry" />
        </mxCell>
        <mxCell id="N9lahQKiaWfDoqIkXYoZ-101" value="" style="shape=partialRectangle;overflow=hidden;connectable=0;fillColor=none;top=0;left=0;bottom=0;right=0;" parent="N9lahQKiaWfDoqIkXYoZ-100" vertex="1">
          <mxGeometry width="30" height="30" as="geometry">
            <mxRectangle width="30" height="30" as="alternateBounds" />
          </mxGeometry>
        </mxCell>
        <mxCell id="N9lahQKiaWfDoqIkXYoZ-102" value="Uid string NOT NULL" style="shape=partialRectangle;overflow=hidden;connectable=0;fillColor=none;top=0;left=0;bottom=0;right=0;align=left;spacingLeft=6;" parent="N9lahQKiaWfDoqIkXYoZ-100" vertex="1">
          <mxGeometry x="30" width="220" height="30" as="geometry">
            <mxRectangle width="220" height="30" as="alternateBounds" />
          </mxGeometry>
        </mxCell>
        <mxCell id="N9lahQKiaWfDoqIkXYoZ-110" value="" style="shape=partialRectangle;collapsible=0;dropTarget=0;pointerEvents=0;fillColor=none;points=[[0,0.5],[1,0.5]];portConstraint=eastwest;top=0;left=0;right=0;bottom=0;" parent="N9lahQKiaWfDoqIkXYoZ-96" vertex="1">
          <mxGeometry y="90" width="250" height="30" as="geometry" />
        </mxCell>
        <mxCell id="N9lahQKiaWfDoqIkXYoZ-111" value="FK" style="shape=partialRectangle;overflow=hidden;connectable=0;fillColor=none;top=0;left=0;bottom=0;right=0;" parent="N9lahQKiaWfDoqIkXYoZ-110" vertex="1">
          <mxGeometry width="30" height="30" as="geometry">
            <mxRectangle width="30" height="30" as="alternateBounds" />
          </mxGeometry>
        </mxCell>
        <mxCell id="N9lahQKiaWfDoqIkXYoZ-112" value="DepartmentsToLocations int NOT NULL" style="shape=partialRectangle;overflow=hidden;connectable=0;fillColor=none;top=0;left=0;bottom=0;right=0;align=left;spacingLeft=6;" parent="N9lahQKiaWfDoqIkXYoZ-110" vertex="1">
          <mxGeometry x="30" width="220" height="30" as="geometry">
            <mxRectangle width="220" height="30" as="alternateBounds" />
          </mxGeometry>
        </mxCell>
        <mxCell id="N9lahQKiaWfDoqIkXYoZ-103" value="" style="shape=partialRectangle;collapsible=0;dropTarget=0;pointerEvents=0;fillColor=none;points=[[0,0.5],[1,0.5]];portConstraint=eastwest;top=0;left=0;right=0;bottom=0;" parent="N9lahQKiaWfDoqIkXYoZ-96" vertex="1">
          <mxGeometry y="120" width="250" height="30" as="geometry" />
        </mxCell>
        <mxCell id="N9lahQKiaWfDoqIkXYoZ-104" value="" style="shape=partialRectangle;overflow=hidden;connectable=0;fillColor=none;top=0;left=0;bottom=0;right=0;" parent="N9lahQKiaWfDoqIkXYoZ-103" vertex="1">
          <mxGeometry width="30" height="30" as="geometry">
            <mxRectangle width="30" height="30" as="alternateBounds" />
          </mxGeometry>
        </mxCell>
        <mxCell id="N9lahQKiaWfDoqIkXYoZ-105" value="Token string NOT NULL" style="shape=partialRectangle;overflow=hidden;connectable=0;fillColor=none;top=0;left=0;bottom=0;right=0;align=left;spacingLeft=6;" parent="N9lahQKiaWfDoqIkXYoZ-103" vertex="1">
          <mxGeometry x="30" width="220" height="30" as="geometry">
            <mxRectangle width="220" height="30" as="alternateBounds" />
          </mxGeometry>
        </mxCell>
        <mxCell id="N9lahQKiaWfDoqIkXYoZ-106" value="" style="shape=partialRectangle;collapsible=0;dropTarget=0;pointerEvents=0;fillColor=none;points=[[0,0.5],[1,0.5]];portConstraint=eastwest;top=0;left=0;right=0;bottom=0;" parent="N9lahQKiaWfDoqIkXYoZ-96" vertex="1">
          <mxGeometry y="150" width="250" height="30" as="geometry" />
        </mxCell>
        <mxCell id="N9lahQKiaWfDoqIkXYoZ-107" value="" style="shape=partialRectangle;overflow=hidden;connectable=0;fillColor=none;top=0;left=0;bottom=0;right=0;" parent="N9lahQKiaWfDoqIkXYoZ-106" vertex="1">
          <mxGeometry width="30" height="30" as="geometry">
            <mxRectangle width="30" height="30" as="alternateBounds" />
          </mxGeometry>
        </mxCell>
        <mxCell id="N9lahQKiaWfDoqIkXYoZ-108" value="TokenExpires DateTime NOT NULL" style="shape=partialRectangle;overflow=hidden;connectable=0;fillColor=none;top=0;left=0;bottom=0;right=0;align=left;spacingLeft=6;" parent="N9lahQKiaWfDoqIkXYoZ-106" vertex="1">
          <mxGeometry x="30" width="220" height="30" as="geometry">
            <mxRectangle width="220" height="30" as="alternateBounds" />
          </mxGeometry>
        </mxCell>
        <mxCell id="N9lahQKiaWfDoqIkXYoZ-113" style="edgeStyle=orthogonalEdgeStyle;rounded=1;orthogonalLoop=1;jettySize=auto;html=1;exitX=1;exitY=0.5;exitDx=0;exitDy=0;entryX=1;entryY=0.5;entryDx=0;entryDy=0;endArrow=ERone;endFill=0;startArrow=ERzeroToMany;startFill=0;" parent="1" source="N9lahQKiaWfDoqIkXYoZ-36" target="C-vyLk0tnHw3VtMMgP7b-24" edge="1">
          <mxGeometry relative="1" as="geometry">
            <Array as="points">
              <mxPoint x="720" y="545" />
              <mxPoint x="720" y="580" />
              <mxPoint x="850" y="580" />
              <mxPoint x="850" y="-15" />
            </Array>
          </mxGeometry>
        </mxCell>
        <mxCell id="N9lahQKiaWfDoqIkXYoZ-114" value="&lt;ul&gt;&lt;li&gt;BarCode&lt;/li&gt;&lt;li&gt;Domain&lt;/li&gt;&lt;li&gt;User&lt;/li&gt;&lt;/ul&gt;" style="text;strokeColor=default;fillColor=none;html=1;whiteSpace=wrap;verticalAlign=middle;overflow=hidden;perimeterSpacing=0;" parent="1" vertex="1">
          <mxGeometry x="740" y="325" width="100" height="80" as="geometry" />
        </mxCell>
        <mxCell id="N9lahQKiaWfDoqIkXYoZ-115" style="edgeStyle=orthogonalEdgeStyle;rounded=0;orthogonalLoop=1;jettySize=auto;html=1;exitX=1;exitY=0.5;exitDx=0;exitDy=0;entryX=0;entryY=0.5;entryDx=0;entryDy=0;" parent="1" source="N9lahQKiaWfDoqIkXYoZ-21" target="N9lahQKiaWfDoqIkXYoZ-114" edge="1">
          <mxGeometry relative="1" as="geometry" />
        </mxCell>
        <mxCell id="N9lahQKiaWfDoqIkXYoZ-116" style="edgeStyle=orthogonalEdgeStyle;rounded=1;orthogonalLoop=1;jettySize=auto;html=1;exitX=1;exitY=0.5;exitDx=0;exitDy=0;entryX=1;entryY=0.5;entryDx=0;entryDy=0;startArrow=ERzeroToMany;startFill=0;endArrow=ERone;endFill=0;" parent="1" source="N9lahQKiaWfDoqIkXYoZ-47" target="C-vyLk0tnHw3VtMMgP7b-24" edge="1">
          <mxGeometry relative="1" as="geometry">
            <Array as="points">
              <mxPoint x="860" y="825" />
              <mxPoint x="860" y="-15" />
            </Array>
          </mxGeometry>
        </mxCell>
      </root>
    </mxGraphModel>
  </diagram>
</mxfile>
